<svg width="20" height="20" viewBox="0 0 20 20" fill="none" xmlns="http://www.w3.org/2000/svg">
  <path d="M19.8 10.2C19.8 9.4 19.7 8.7 19.6 8H10V11.8H15.5C15.3 13 14.6 14 13.5 14.7V17.1H16.8C18.7 15.4 19.8 13 19.8 10.2Z" fill="#4285F4"/>
  <path d="M10 20C12.7 20 15 19.1 16.8 17.1L13.5 14.7C12.6 15.3 11.4 15.7 10 15.7C7.4 15.7 5.1 14 4.3 11.6H0.899998V14.1C2.7 17.6 6.1 20 10 20Z" fill="#34A853"/>
  <path d="M4.3 11.6C3.9 10.4 3.9 9.2 4.3 8V5.5H0.899998C-0.3 8.3 -0.3 11.3 0.899998 14.1L4.3 11.6Z" fill="#FBBC04"/>
  <path d="M10 4.3C11.4 4.3 12.7 4.8 13.7 5.8L16.6 2.9C14.9 1.1 12.5 0 10 0C6.1 0 2.7 2.4 0.899998 5.9L4.3 8.4C5.1 6 7.4 4.3 10 4.3Z" fill="#EA4335"/>
</svg>
